<?xml version="1.0" standalone="no"?>
<!DOCTYPE svg PUBLIC "-//W3C//DTD SVG 20010904//EN"
 "http://www.w3.org/TR/2001/REC-SVG-20010904/DTD/svg10.dtd">
<svg version="1.0" xmlns="http://www.w3.org/2000/svg"
 width="709.000000pt" height="709.000000pt" viewBox="0 0 709.000000 709.000000"
 preserveAspectRatio="xMidYMid meet">
<metadata>
Created by potrace 1.14, written by Peter Selinger 2001-2017
</metadata>
<g transform="translate(0.000000,709.000000) scale(0.100000,-0.100000)"
fill="#000000" stroke="none">
<path d="M3479 6086 c-2 -2 -38 -7 -79 -10 -284 -26 -581 -100 -855 -213 -448
-185 -874 -518 -1156 -903 -249 -340 -403 -712 -466 -1130 -13 -84 -17 -176
-17 -340 0 -267 12 -361 79 -640 26 -108 93 -285 161 -427 229 -479 631 -898
1119 -1170 95 -53 310 -153 328 -153 7 0 17 -4 23 -9 9 -8 137 -54 199 -71 17
-5 71 -19 120 -33 86 -23 264 -60 350 -71 153 -21 506 -28 675 -14 269 23 627
111 847 209 24 10 45 19 48 19 2 0 44 19 92 42 188 90 386 214 553 347 112 88
308 283 401 396 66 80 197 269 229 328 9 18 35 66 57 107 134 244 237 583 270
883 16 145 8 488 -13 615 -3 15 -9 54 -15 87 -13 80 -79 328 -90 340 -5 5 -9
15 -9 23 0 28 -103 263 -162 368 -135 244 -259 407 -462 609 -358 357 -811
607 -1321 730 -137 33 -168 40 -250 51 -22 2 -71 10 -110 16 -63 9 -538 21
-546 14z"/>
</g>
</svg>
